<svg xmlns="http://www.w3.org/2000/svg" width="135" height="40" viewBox="0 0 135 40" fill="none"><rect x="0.5" y="0.5" width="134" height="39" rx="3.5" fill="white"></rect><path fill-rule="evenodd" clip-rule="evenodd" d="M75.46 7.87001L74.85 7.26001L74.27 7.86001L74.86 8.46001L75.46 7.87001ZM73.12 12.75H71.96C71.928 12.7633 71.892 12.7633 71.86 12.75H71.85C71.8351 12.7531 71.8199 12.753 71.8054 12.75H70.53V12.78H70.09L69.83 12.73L69.59 12.64C69.5124 12.6017 69.4414 12.551 69.38 12.49C69.095 12.7098 68.7389 12.8167 68.38 12.79H64.68C64.5233 12.7885 64.368 12.7615 64.22 12.71C64.0768 12.6599 63.9468 12.5778 63.84 12.47C63.7918 12.4244 63.7483 12.3742 63.71 12.32C63.6004 12.1792 63.5251 12.0149 63.49 11.84C63.4741 11.7272 63.4741 11.6128 63.49 11.5C63.4764 11.3804 63.4764 11.2596 63.49 11.14C63.49 11.02 63.49 10.9 63.56 10.78C63.5937 10.7223 63.595 10.6715 63.5961 10.6255C63.5974 10.5757 63.5985 10.5315 63.64 10.49C63.7009 10.4291 63.6691 10.3798 63.6504 10.3509C63.6446 10.3418 63.64 10.3348 63.64 10.33L64.03 10.46L64.42 10.58C64.42 10.64 64.42 10.71 64.35 10.79L64.29 11.04V11.3C64.2865 11.3666 64.2865 11.4334 64.29 11.5C64.2719 11.5857 64.2719 11.6743 64.29 11.76C64.3122 11.8164 64.3504 11.8651 64.4 11.9C64.4349 11.9364 64.4804 11.9609 64.53 11.97H64.67H68.41C68.5127 11.9861 68.6173 11.9861 68.72 11.97C68.7923 11.9574 68.8587 11.9224 68.91 11.87C68.9639 11.8023 68.9891 11.7161 68.98 11.63V10.51H69.81V11.51C69.7986 11.5762 69.7986 11.6438 69.81 11.71C69.8306 11.7592 69.8612 11.8035 69.9 11.84C69.9313 11.8779 69.973 11.9057 70.02 11.92C70.056 11.945 70.0969 11.962 70.14 11.97H70.25H70.37C70.402 11.9567 70.438 11.9567 70.47 11.97H70.53V11.9713L71.7146 11.9969C71.7156 11.9878 71.7174 11.9788 71.72 11.97C71.752 11.9567 71.788 11.9567 71.82 11.97L73.22 12C73.2526 11.99 73.2874 11.99 73.32 12L74.46 12C74.6131 12.0118 74.7669 12.0118 74.92 12C75.0224 11.9831 75.1228 11.9563 75.22 11.92C75.2823 11.8929 75.3398 11.8557 75.39 11.81C75.4262 11.7751 75.4566 11.7346 75.48 11.69C75.2209 11.7198 74.9592 11.7198 74.7 11.69C74.4913 11.6663 74.2901 11.5981 74.11 11.49C73.952 11.3935 73.8239 11.255 73.74 11.09C73.6471 10.9076 73.6023 10.7045 73.61 10.5C73.6064 10.3216 73.6405 10.1444 73.71 9.98001C73.7717 9.80135 73.8706 9.63776 74 9.50001C74.1217 9.37457 74.2681 9.27581 74.43 9.21001C74.601 9.13982 74.7855 9.10906 74.97 9.12001C75.1302 9.12687 75.2886 9.15719 75.44 9.21001C75.5671 9.26535 75.6851 9.33952 75.79 9.43001C75.8861 9.51985 75.9671 9.62451 76.03 9.74001C76.0977 9.86013 76.1514 9.98763 76.19 10.12C76.2296 10.2612 76.2596 10.4048 76.28 10.55C76.2899 10.6998 76.2899 10.8502 76.28 11V11.25C76.2692 11.5093 76.2081 11.7641 76.1 12C76.0022 12.1867 75.8617 12.3478 75.69 12.47C75.5152 12.5821 75.3224 12.6633 75.12 12.71C74.899 12.7507 74.6747 12.7708 74.45 12.77H73.12V12.75ZM75 9.93001C74.9237 9.91971 74.8463 9.91971 74.77 9.93001C74.6963 9.94677 74.6277 9.98107 74.57 10.03C74.5141 10.0717 74.4694 10.1267 74.44 10.19C74.4026 10.257 74.3852 10.3334 74.39 10.41C74.3867 10.5985 74.5093 10.7662 74.69 10.82C74.971 10.9006 75.269 10.9006 75.55 10.82V10.52C75.534 10.4175 75.5072 10.3169 75.47 10.22C75.4356 10.1318 75.3807 10.053 75.31 9.99001C75.214 9.94222 75.1069 9.92147 75 9.93001ZM28.86 7.94001C28.86 7.66387 29.0839 7.44001 29.36 7.44001C29.6362 7.44001 29.86 7.66387 29.86 7.94001C29.8636 8.05831 29.8205 8.17327 29.74 8.26001C29.5318 8.43474 29.2282 8.43474 29.02 8.26001C28.9247 8.18004 28.8668 8.0642 28.86 7.94001ZM29.76 12.72H28.91V8.92001H29.76V12.72ZM25.93 12.77H25.11V8.06001H25.93V12.77ZM23.81 8.50001L23.22 9.10001L23.81 9.70001L24.41 9.10001L23.81 8.50001ZM24.06 13.39C24.1562 13.1268 24.2102 12.8501 24.22 12.57V10.5H23.41V12.5C23.4102 12.6922 23.3867 12.8836 23.34 13.07C23.2973 13.2092 23.2219 13.336 23.12 13.44C23.0142 13.5425 22.8831 13.615 22.74 13.65C22.5633 13.6931 22.3818 13.7133 22.2 13.71H21.79V14.53H22.2C22.4827 14.5324 22.7637 14.485 23.03 14.39C23.2623 14.306 23.4737 14.173 23.65 14C23.8257 13.8258 23.965 13.6185 24.06 13.39ZM34.51 11.62C34.6892 11.2034 34.7779 10.7535 34.77 10.3V10C34.7825 9.53867 34.6902 9.0805 34.5 8.66001C34.3415 8.30792 34.0845 8.00924 33.76 7.80001C33.0743 7.39927 32.2258 7.39927 31.54 7.80001C31.2122 8.01698 30.9523 8.32198 30.79 8.68001C30.6108 9.09661 30.5222 9.54656 30.53 10V10.33C30.5218 10.7781 30.614 11.2223 30.8 11.63C30.9565 11.9864 31.2182 12.2865 31.55 12.49C32.2358 12.8907 33.0843 12.8907 33.77 12.49C34.0988 12.2813 34.3568 11.978 34.51 11.62ZM33.56 8.70001C33.7949 9.09132 33.9065 9.54436 33.88 10V10.29C33.9091 10.7491 33.7975 11.2061 33.56 11.6C33.3628 11.901 33.0191 12.0729 32.66 12.05C32.2945 12.0657 31.9467 11.8918 31.74 11.59C31.501 11.2001 31.3859 10.7468 31.41 10.29V10C31.3863 9.54196 31.5051 9.08782 31.75 8.70001C31.9472 8.39901 32.2909 8.22716 32.65 8.25001C33.0105 8.23366 33.3542 8.4036 33.56 8.70001ZM38 10.89C38.1615 11.0127 38.2514 11.2076 38.24 11.41C38.2539 11.5937 38.1841 11.7737 38.05 11.9C37.8456 12.0421 37.5983 12.1093 37.35 12.09C37.0539 12.1086 36.7605 12.0238 36.52 11.85C36.3275 11.6824 36.224 11.4347 36.24 11.18H35.35C35.342 11.4795 35.4296 11.7737 35.6 12.02C35.7904 12.2695 36.0418 12.4657 36.33 12.59C36.6469 12.7218 36.9868 12.7897 37.33 12.79C37.802 12.817 38.2697 12.6869 38.66 12.42C38.9761 12.1861 39.1589 11.8132 39.15 11.42C39.1532 11.1793 39.0947 10.9417 38.98 10.73C38.8481 10.5163 38.6662 10.3378 38.45 10.21C38.1362 10.0322 37.7999 9.89765 37.45 9.81001C37.1487 9.73305 36.8617 9.60812 36.6 9.44001C36.436 9.34061 36.3371 9.16173 36.34 8.97001C36.332 8.76823 36.4213 8.57486 36.58 8.45001C36.7778 8.31864 37.013 8.25544 37.25 8.27001C37.509 8.25182 37.7655 8.3302 37.97 8.49001C38.1403 8.65413 38.2314 8.88378 38.22 9.12001H39.1C39.1009 8.83691 39.0211 8.55941 38.87 8.32001C38.7064 8.07555 38.4778 7.8816 38.21 7.76001C37.9133 7.62006 37.5879 7.55156 37.26 7.56001C36.7899 7.535 36.326 7.67665 35.95 7.96001C35.634 8.19503 35.4484 8.56619 35.45 8.96001C35.4549 9.44012 35.7241 9.87843 36.15 10.1C36.4638 10.2825 36.8 10.4237 37.15 10.52C37.4535 10.5906 37.7416 10.716 38 10.89ZM45.23 12.77H45.32V12.74H46.09C46.3147 12.7403 46.539 12.7203 46.76 12.68C46.98 12.64 47.2 12.59 47.41 12.53C47.617 12.4672 47.8206 12.3937 48.02 12.31L48.56 12.07C48.6683 12.2796 48.835 12.4533 49.04 12.57C49.2558 12.6835 49.4962 12.7419 49.74 12.74H50.1472C50.1693 12.7514 50.195 12.7552 50.22 12.75H51.5254C51.5399 12.753 51.5551 12.7531 51.57 12.75H51.58C51.612 12.7633 51.648 12.7633 51.68 12.75H52.83V12.84H53.25C53.6076 12.8554 53.9599 12.7497 54.25 12.54C54.3728 12.6367 54.5116 12.7111 54.66 12.76C54.8334 12.8204 55.0166 12.8475 55.2 12.84C55.3468 12.8376 55.4922 12.8106 55.63 12.76C55.7675 12.7029 55.8956 12.6254 56.01 12.53C56.1268 12.64 56.2669 12.7221 56.42 12.77C56.5919 12.8211 56.7708 12.8448 56.95 12.84C57.1071 12.8435 57.2633 12.8163 57.41 12.76C57.5547 12.7115 57.6875 12.6331 57.8 12.53C57.9227 12.6424 58.07 12.7245 58.23 12.77C58.4189 12.8216 58.6143 12.8452 58.81 12.84H59.13V12.74H59.67C59.8238 12.7435 59.9768 12.7163 60.12 12.66C60.2698 12.6095 60.4088 12.5315 60.53 12.43C60.6509 12.3122 60.7492 12.1733 60.82 12.02C60.8947 11.8359 60.9321 11.6387 60.93 11.44V11.18V10.89L60.87 10.58C60.8765 10.4901 60.8765 10.3999 60.87 10.31V10.1V10L60.23 10.31C60.2331 10.3566 60.2331 10.4034 60.23 10.45C60.28 10.51 60.28 10.58 60.28 10.65V10.88V11.12V11.34C60.2845 11.3999 60.2845 11.4601 60.28 11.52C60.2981 11.6091 60.2981 11.7009 60.28 11.79C60.2447 11.8465 60.2009 11.8971 60.15 11.94C60.1038 11.9685 60.0531 11.9888 60 12H59V12.03H58.81C58.6523 12.0398 58.4954 12.0014 58.36 11.92C58.2575 11.8251 58.2025 11.6895 58.21 11.55V10.55H57.4V11.55C57.4125 11.6228 57.4125 11.6972 57.4 11.77C57.375 11.8251 57.3412 11.8757 57.3 11.92C57.2618 11.9594 57.2133 11.9871 57.16 12C57.1072 12.0105 57.0528 12.0105 57 12C56.8353 12.0178 56.6711 11.963 56.55 11.85C56.4528 11.7447 56.4054 11.6026 56.42 11.46V10.52H55.61V11.52C55.6121 11.606 55.595 11.6914 55.56 11.77C55.5367 11.8286 55.4989 11.8802 55.45 11.92C55.4101 11.9549 55.3619 11.979 55.31 11.99H55.19C55.0419 11.9998 54.8955 11.9534 54.78 11.86C54.6865 11.7565 54.6395 11.6191 54.65 11.48V10.54H53.84V11.54C53.8454 11.6066 53.8454 11.6735 53.84 11.74C53.8222 11.7993 53.7914 11.854 53.75 11.9C53.6925 11.9433 53.6283 11.9771 53.56 12C53.457 12.0124 53.353 12.0124 53.25 12L53.04 12C53.0074 11.99 52.9726 11.99 52.94 12L52.94 12L51.54 11.97C51.508 11.9567 51.472 11.9567 51.44 11.97C51.4374 11.9788 51.4356 11.9878 51.4346 11.9969L50.34 11.9732V11.93H49.65H49.51L49.37 11.85C49.3288 11.8057 49.295 11.7551 49.27 11.7L49.51 11.54L49.62 11.47L49.51 10.8H49.36L49.07 10.69L48.68 10.55L48.24 10.39L47.78 10.23L47.35 10.1L47 10L46.74 9.91001C46.6065 9.90537 46.4736 9.92923 46.35 9.98001C46.2379 10.0265 46.136 10.0944 46.05 10.18C45.9626 10.2689 45.8885 10.3699 45.83 10.48C45.7698 10.5989 45.7196 10.7227 45.68 10.85L46.43 11.08C46.4464 11.0221 46.4736 10.9679 46.51 10.92C46.5308 10.8794 46.5578 10.8423 46.59 10.81C46.6207 10.7806 46.6587 10.7599 46.7 10.75H46.83C46.8931 10.7416 46.957 10.7416 47.02 10.75L47.31 10.81L47.64 10.9L48 11L48.39 11.18L48.72 11.28C48.5385 11.3745 48.3515 11.458 48.16 11.53C47.9432 11.6246 47.7192 11.7015 47.49 11.76C47.2573 11.8319 47.0201 11.8887 46.78 11.93C46.553 11.9765 46.3218 12 46.09 12H45.32V11.92H45.23H44.98C44.8814 11.9099 44.786 11.8792 44.7 11.83C44.6008 11.7815 44.5123 11.7135 44.44 11.63C44.3543 11.5337 44.2957 11.4164 44.27 11.29L43.67 8.97001L42.88 9.16001L42.95 9.47001C42.7491 9.54302 42.5522 9.62646 42.36 9.72001C42.173 9.81091 41.9983 9.92516 41.84 10.06C41.6985 10.1965 41.5802 10.3553 41.49 10.53C41.3957 10.723 41.3478 10.9353 41.35 11.15C41.3478 11.339 41.3852 11.5264 41.46 11.7C41.5237 11.8547 41.6191 11.9944 41.74 12.11C41.8566 12.2249 41.9964 12.3135 42.15 12.37C42.3062 12.4306 42.4725 12.4611 42.64 12.46H42.94C43.0397 12.4406 43.1369 12.4104 43.23 12.37C43.3266 12.3287 43.4174 12.2749 43.5 12.21C43.5789 12.1528 43.6467 12.0816 43.7 12C43.7614 12.1368 43.846 12.262 43.95 12.37C44.0566 12.4711 44.178 12.5554 44.31 12.62C44.4472 12.6862 44.5914 12.7365 44.74 12.77C44.903 12.7853 45.067 12.7853 45.23 12.77ZM43.32 10.96C43.3303 11.0229 43.3303 11.0871 43.32 11.15H43.31C43.2921 11.2833 43.2242 11.4049 43.12 11.49C42.9952 11.5661 42.8553 11.6139 42.71 11.63C42.6408 11.6449 42.5692 11.6449 42.5 11.63C42.4316 11.6123 42.3671 11.5817 42.31 11.54C42.2483 11.502 42.1995 11.4462 42.17 11.38C42.1293 11.3176 42.1084 11.2445 42.11 11.17C42.109 10.9628 42.21 10.7684 42.38 10.65C42.6203 10.4802 42.8873 10.3518 43.17 10.27C43.2113 10.3216 43.2126 10.3706 43.2139 10.4169C43.215 10.4603 43.2162 10.5013 43.25 10.54C43.32 10.62 43.32 10.7 43.32 10.77C43.3249 10.8332 43.3249 10.8968 43.32 10.96ZM46.09 8.60001L46.67 8.01001L47.28 8.61001L46.68 9.20001L46.09 8.60001ZM59.48 8.68001L60.07 8.09001L60.67 8.69001L60.07 9.28001L59.48 8.68001ZM65.92 10.24L65.37 9.69001L65.91 9.12001L66.47 9.69001L65.92 10.24ZM66.74 9.68001L67.29 10.24L67.85 9.68001L67.28 9.12001L66.74 9.68001ZM78.66 12.77C78.4537 12.7869 78.2463 12.7869 78.04 12.77C77.8912 12.7476 77.7463 12.7039 77.61 12.64C77.501 12.5892 77.4051 12.514 77.33 12.42C77.2559 12.3236 77.1984 12.2154 77.16 12.1C77.1244 11.9691 77.101 11.8352 77.09 11.7V11.19V8.06001H77.91V11.15C77.8979 11.2897 77.8979 11.4303 77.91 11.57C77.9135 11.6606 77.945 11.7479 78 11.82C78.0645 11.8781 78.1443 11.9163 78.23 11.93C78.3731 11.9426 78.5169 11.9426 78.66 11.93V12H80.07C80.1231 11.9888 80.1738 11.9685 80.22 11.94C80.2682 11.8944 80.3118 11.8442 80.35 11.79C80.3849 11.7043 80.4019 11.6125 80.4 11.52C80.4045 11.4601 80.4045 11.3999 80.4 11.34V11.12C80.4048 11.0401 80.4048 10.9599 80.4 10.88V10.65V10.45V10.31L81 10C81.0058 10.0331 81.0058 10.0669 81 10.1V10.31V10.58V10.89V11.18V11.44C81.0021 11.6387 80.9647 11.8359 80.89 12.02C80.8192 12.1733 80.7209 12.3122 80.6 12.43C80.4788 12.5315 80.3398 12.6095 80.19 12.66C80.0466 12.7155 79.8938 12.7427 79.74 12.74H78.66V12.77ZM78.64 14L79.24 14.52L79.74 14L79.18 13.44L78.64 14ZM80.61 14.52L80 14L80.54 13.44L81.1 14L80.61 14.52ZM83.85 12.57C83.837 12.8506 83.7796 13.1274 83.68 13.39C83.5885 13.6179 83.4525 13.8252 83.28 14C83.1001 14.1732 82.8853 14.3062 82.65 14.39C82.3839 14.4858 82.1028 14.5332 81.82 14.53H81.42V13.71H81.82C82.0051 13.7126 82.1898 13.6925 82.37 13.65C82.511 13.6172 82.6395 13.5443 82.74 13.44C82.8419 13.336 82.9173 13.2092 82.96 13.07C83.0016 12.883 83.015 12.6909 83 12.5V10.5H83.82L83.85 12.57ZM85.42 12.78H85.67C85.8523 12.7658 86.033 12.7357 86.21 12.69C86.4097 12.6555 86.6002 12.5807 86.77 12.47C86.8545 12.4168 86.929 12.3491 86.99 12.27C87.1621 12.0602 87.2415 11.7895 87.21 11.52C87.1769 11.334 87.1054 11.1569 87 11L86.54 10.54L86.28 10.15L86.11 9.90001L86.01 9.75001V9.68001L85.78 9.34001L85.1 9.79001L86.32 11.56C86.3514 11.6059 86.375 11.6565 86.39 11.71C86.405 11.7451 86.405 11.7849 86.39 11.82C86.3422 11.9242 86.2438 11.9961 86.13 12.01C85.9744 12.0359 85.8156 12.0359 85.66 12.01C85.4641 11.9937 85.27 11.9602 85.08 11.91C84.8804 11.8639 84.6835 11.8072 84.49 11.74L84.26 12.52L84.65 12.64L84.92 12.72L85.18 12.78H85.42Z" fill="black"></path><path d="M45.0706 22.9999H49.7006C50.0495 23.0038 50.3941 23.0766 50.7148 23.214C51.0355 23.3515 51.3259 23.5509 51.5693 23.8008C51.8127 24.0507 52.0044 24.3463 52.1333 24.6704C52.2622 24.9946 52.3259 25.3411 52.3206 25.6899H45.0406C44.4249 25.6887 43.8183 25.5413 43.2706 25.2599C43.011 25.8427 42.6157 26.355 42.1178 26.7539C41.6199 27.1528 41.0337 27.4268 40.4083 27.5531C39.7829 27.6793 39.1364 27.6542 38.5227 27.4796C37.909 27.3051 37.346 26.9864 36.8806 26.5499C36.146 27.2227 35.1867 27.5971 34.1906 27.5999C33.6016 27.6013 33.0201 27.4679 32.4906 27.2099C32.0019 28.7599 30.9841 30.0888 29.615 30.9643C28.2459 31.8399 26.6126 32.2065 25.0006 31.9999C23.3139 31.7397 21.778 30.8791 20.6755 29.5763C19.573 28.2736 18.9783 26.6164 19.0006 24.9099V19.9999C19.3473 19.9946 19.6917 20.0577 20.014 20.1855C20.3363 20.3133 20.6303 20.5034 20.8792 20.7448C21.128 20.9862 21.3269 21.2743 21.4644 21.5926C21.6019 21.911 21.6754 22.2532 21.6806 22.5999V24.9199C21.6622 25.9991 22.043 27.0471 22.7498 27.8628C23.4566 28.6785 24.4398 29.2046 25.5106 29.3399C26.1018 29.3985 26.6987 29.3328 27.2629 29.147C27.8272 28.9612 28.3464 28.6594 28.7871 28.2611C29.2278 27.8627 29.5804 27.3766 29.8221 26.8339C30.0638 26.2912 30.1893 25.704 30.1906 25.1099V19.9299H32.8406V23.5299C32.8406 23.8959 32.986 24.2469 33.2448 24.5057C33.5036 24.7645 33.8546 24.9099 34.2206 24.9099C34.5866 24.9099 34.9376 24.7645 35.1964 24.5057C35.4552 24.2469 35.6006 23.8959 35.6006 23.5299V19.9299H38.2506V23.5599C38.2344 23.7504 38.2578 23.9421 38.3196 24.123C38.3813 24.3038 38.4799 24.4699 38.6092 24.6107C38.7384 24.7515 38.8955 24.8638 39.0705 24.9407C39.2455 25.0176 39.4345 25.0573 39.6256 25.0573C39.8167 25.0573 40.0058 25.0176 40.1807 24.9407C40.3557 24.8638 40.5128 24.7515 40.6421 24.6107C40.7713 24.4699 40.87 24.3038 40.9317 24.123C40.9934 23.9421 41.0169 23.7504 41.0006 23.5599V19.9299H43.6906V21.6299C43.6906 21.8107 43.7264 21.9897 43.7958 22.1565C43.8653 22.3234 43.9671 22.4749 44.0954 22.6022C44.2237 22.7296 44.3759 22.8303 44.5433 22.8985C44.7106 22.9668 44.8899 23.0013 45.0706 22.9999Z" fill="black"></path><path d="M81.0109 31.2273C80.5143 31.7221 79.8417 32 79.1406 32V24.4H81.7906V29.36C81.788 30.0611 81.5076 30.7325 81.0109 31.2273Z" fill="black"></path><path d="M54.6306 31.9399C55.3317 31.9399 56.0042 31.6621 56.5009 31.1673C56.9976 30.6725 57.278 30.001 57.2806 29.2999V19.9399H54.6306V31.9399Z" fill="black"></path><path d="M74.4906 22.5599H72.4906C72.3665 22.5462 72.2409 22.5607 72.1232 22.6022C72.0054 22.6438 71.8986 22.7114 71.8106 22.7999C71.6363 22.9973 71.54 23.2516 71.54 23.5149C71.54 23.7783 71.6363 24.0326 71.8106 24.2299C71.9866 24.4031 72.2237 24.5001 72.4706 24.4999H77.0606V25.2199C76.893 27.1103 76.0065 28.8643 74.5838 30.1204C73.1611 31.3764 71.3108 32.0387 69.4142 31.9707C67.5176 31.9028 65.7194 31.1097 64.3903 29.7551C63.0612 28.4004 62.3025 26.5875 62.2706 24.6899V19.9399H64.9906V24.6399C65.0117 25.883 65.5244 27.0671 66.4165 27.933C67.3086 28.7988 68.5075 29.276 69.7506 29.2599C70.5488 29.2549 71.3331 29.05 72.0318 28.6639C72.7305 28.2779 73.3214 27.723 73.7506 27.0499H72.5106C72.0437 27.0491 71.5815 26.9559 71.1507 26.7757C70.7199 26.5955 70.329 26.3318 70.0006 25.9999C69.6669 25.6786 69.4011 25.2935 69.219 24.8675C69.0369 24.4415 68.9423 23.9832 68.9406 23.5199C68.952 22.5739 69.3324 21.6697 70.0006 20.9999C70.3198 20.6681 70.7015 20.4028 71.1237 20.2191C71.5459 20.0355 72.0003 19.9372 72.4606 19.9299H77.1506C77.1453 20.631 76.8624 21.3014 76.3639 21.7944C75.8653 22.2873 75.1917 22.5626 74.4906 22.5599Z" fill="black"></path><path d="M45.8406 27.65C45.8406 27.9331 45.8965 28.2135 46.0052 28.475C46.1139 28.7366 46.2732 28.974 46.4739 29.1738C46.6746 29.3736 46.9128 29.5317 47.1748 29.6392C47.4368 29.7466 47.7174 29.8013 48.0006 29.8H50.1706V32C50.7357 32 51.278 31.7776 51.6804 31.3809C52.0827 30.9841 52.3127 30.445 52.3206 29.88V27.65H45.8406Z" fill="black"></path><path d="M79.6709 20.7103C80.1641 20.217 80.8331 19.9399 81.5306 19.9399V19.9999H86.8206C86.8049 20.687 86.5209 21.3406 86.0294 21.821C85.5379 22.3013 84.8779 22.5701 84.1906 22.5699H78.9006C78.9006 21.8724 79.1777 21.2035 79.6709 20.7103Z" fill="black"></path><g filter="url(#filter0_d)"><path d="M110.66 8H97.34C94.3908 8 92 10.3908 92 13.34V26.66C92 29.6092 94.3908 32 97.34 32H110.66C113.609 32 116 29.6092 116 26.66V13.34C116 10.3908 113.609 8 110.66 8Z" fill="white"></path><path d="M107.25 14.0001C108.062 13.046 108.465 11.8096 108.37 10.5601C107.142 10.6818 106.006 11.2642 105.19 12.1901C104.393 13.1015 103.99 14.2919 104.07 15.5001C104.679 15.5088 105.283 15.3782 105.834 15.1182C106.385 14.8582 106.869 14.4758 107.25 14.0001Z" fill="url(#paint0_linear)"></path><path d="M105.8 18.19C105.8 18.19 104.03 19.78 104 19.78C103.97 19.78 102.16 18.16 102.16 18.16C100.557 16.5027 98.3742 15.5313 96.07 15.45H92V26.66C92 28.0762 92.5626 29.4345 93.564 30.4359C94.5655 31.4373 95.9237 32 97.34 32H110.66C112.076 32 113.435 31.4373 114.436 30.4359C115.437 29.4345 116 28.0762 116 26.66V15.45H111.9C109.587 15.5335 107.399 16.5167 105.8 18.19Z" fill="url(#paint1_linear)"></path><path d="M103.99 26.4101C103.149 26.4114 102.316 26.2463 101.538 25.9244C100.761 25.6025 100.055 25.1301 99.4616 24.5344C98.8677 23.9386 98.3975 23.2313 98.078 22.4531C97.7585 21.6749 97.5961 20.8413 97.6 20.0001C97.6 19.7508 97.699 19.5117 97.8753 19.3354C98.0516 19.1591 98.2907 19.0601 98.54 19.0601C98.7893 19.0601 99.0284 19.1591 99.2047 19.3354C99.381 19.5117 99.48 19.7508 99.48 20.0001C99.4389 20.6162 99.5248 21.2343 99.7323 21.8159C99.9399 22.3975 100.265 22.9304 100.687 23.3813C101.108 23.8323 101.618 24.1918 102.185 24.4376C102.752 24.6834 103.362 24.8102 103.98 24.8102C104.598 24.8102 105.209 24.6834 105.775 24.4376C106.342 24.1918 106.852 23.8323 107.273 23.3813C107.695 22.9304 108.02 22.3975 108.228 21.8159C108.435 21.2343 108.521 20.6162 108.48 20.0001C108.504 19.7688 108.613 19.5545 108.785 19.3988C108.958 19.2431 109.182 19.1569 109.415 19.1569C109.648 19.1569 109.872 19.2431 110.045 19.3988C110.217 19.5545 110.326 19.7688 110.35 20.0001C110.351 20.8387 110.187 21.6694 109.867 22.4447C109.547 23.2199 109.077 23.9244 108.485 24.5179C107.892 25.1114 107.189 25.5822 106.414 25.9035C105.639 26.2247 104.809 26.3901 103.97 26.3901L103.99 26.4101Z" fill="white"></path></g><defs><filter id="filter0_d" x="90" y="6" width="28" height="28" filterUnits="userSpaceOnUse" color-interpolation-filters="sRGB"><feGaussianBlur stdDeviation="1"></feGaussianBlur></filter><linearGradient id="paint0_linear" x1="104.02" y1="13.0201" x2="108.39" y2="13.0201" gradientUnits="userSpaceOnUse"><stop stop-color="#1767E6"></stop><stop offset="0.64" stop-color="#14BBF2"></stop></linearGradient><linearGradient id="paint1_linear" x1="684.56" y1="528.996" x2="832.205" y2="54.293" gradientUnits="userSpaceOnUse"><stop stop-color="#1767E6"></stop><stop offset="0.64" stop-color="#14BBF2"></stop></linearGradient></defs></svg>