<svg xmlns="http://www.w3.org/2000/svg" width="611.4" height="389.1" viewBox="0 0 611.4 389.1">
  <defs>
    <style>
	
	
		.eyes{
			animation: eyes 5s linear infinite;
		}
		.eyes+.eyes{
			animation: eyes2 5s linear infinite;
		}
		@keyframes eyes{
			50%{
				transform: translateX(3%)
			}
		}

		@keyframes eyes2{
			50%{
				transform: translateX(-3%)
			}
		}


		.mouth{
			animation: mouth 6s linear infinite;
		}
		@keyframes mouth{
			50%{
				transform: translateY(7%)
			}
		}
		.warnings{
			animation: warning 1s linear infinite;
		}
		.warnings+.warnings{
			animation-delay: .5s;
		}
		.warnings+.warnings+.warnings{
			animation-delay: .75s;
		}
		@keyframes warning{
			100%{
				opacity: 0;
			}
		}
      .cls-1 {
        fill: #ebebeb;
      }

      .cls-2 {
        fill: #fff;
      }

      .cls-3 {
        fill: #dbdbdb;
      }

      .cls-4 {
        fill: #c7c7c7;
      }

      .cls-5 {
        fill: #263238;
      }

      .cls-6 {
        fill: #eb9481;
      }

      .cls-7 {
        fill: #a6a6a6;
      }

      .cls-8 {
        fill: #37474f;
      }

      .cls-9 {
        fill: #ffc727;
      }

      .cls-10, .cls-13, .cls-14 {
        fill: none;
      }

      .cls-10 {
        stroke: #f5a79e;
        stroke-linecap: round;
        stroke-linejoin: round;
        stroke-width: 0;
      }

      .cls-11 {
        fill: #ff99ba;
      }

      .cls-12 {
        opacity: 0.1;
      }

      .cls-13, .cls-14 {
        stroke: #263238;
        stroke-miterlimit: 10;
      }

      .cls-14 {
        stroke-dasharray: 4 4;
      }

      .cls-15 {
        fill: #455a64;
      }
    </style>
  </defs>
  <g id="Layer_2" data-name="Layer 2">
    <g id="Background_Complete" data-name="Background Complete">
      <g>
        <g>
          <path class="cls-1" d="M54.2,249.2a280.2,280.2,0,0,0-.4-29A369.8,369.8,0,0,0,44.7,161c-2.5-10.9-5.7-21.7-8.9-32.4-.1-.4-.6-.3-.5.1,10,37.9,18.3,77,17.7,116.4-.1,11-1.4,21.8-2.5,32.8a.3.3,0,0,0,.6.1C53.1,268.6,53.8,258.8,54.2,249.2Z"/>
          <path class="cls-1" d="M35.3,128.7S20,167.4,23.4,176.5s10.5,11,10.5,11-9.3,13.3-2.8,25.8,21,11.9,21.9,26.1C53,239.4,53.8,180.1,35.3,128.7Z"/>
          <path class="cls-2" d="M51.4,214.9v-.2c-2.2-26.3-6.8-52.5-14.8-77.8h-.1c3,11.3,5.7,22.7,8,34.1a16.9,16.9,0,0,0-7.3-4c-.1,0-.1,0,0,.1a19,19,0,0,1,7.5,5c.4,2.2.8,4.5,1.3,6.7-3.4-3.8-8.2-5.7-12.9-7.5-.1,0-.1.1,0,.1,4.9,2,9.8,4.6,13.1,8.8,1.2,6.5,2.2,12.9,3.1,19.4a18.2,18.2,0,0,0-9.1-5.2c-.1-.1-.2.1-.1.1a19.8,19.8,0,0,1,9.3,5.9h0l.9,6.8a23.1,23.1,0,0,0-6.4-3.8c-.1-.1-.1,0,0,.1a22.2,22.2,0,0,1,6.4,4.2h0c.3,2.2.5,4.4.8,6.5a31.6,31.6,0,0,0-13-9.2c-.1,0-.1.1,0,.2a32.8,32.8,0,0,1,12.7,9.8h.3c.4,3.3.7,6.6.9,10h.1C51.9,221.7,51.7,218.3,51.4,214.9Z"/>
          <path class="cls-2" d="M39.1,163.1a18.3,18.3,0,0,0-9.1-2.8c-.1,0-.1.1,0,.1a41.1,41.1,0,0,1,9,2.9C39.1,163.4,39.2,163.2,39.1,163.1Z"/>
          <path class="cls-2" d="M41,204.1a18.9,18.9,0,0,0-6.9-2.4c-.1,0-.1.2,0,.2a24,24,0,0,1,6.8,2.4C41,204.3,41.1,204.2,41,204.1Z"/>
        </g>
        <g>
          <path class="cls-1" d="M94.3,177.1a104.1,104.1,0,0,0-17.7,15.4,63.5,63.5,0,0,0-12.3,21A156.5,156.5,0,0,0,55,263.7a121.6,121.6,0,0,0,2.8,28.2c0,.4.5.3.5-.1a156.8,156.8,0,0,1,.3-49.3c2.6-16,6.7-33.4,16.9-46.5,5.5-7,12.4-12.6,19.2-18.4A.3.3,0,1,0,94.3,177.1Z"/>
          <path class="cls-1" d="M57.3,252.2a96.6,96.6,0,0,1,12.8-16.5c7.7-7.6,14.1-13,15.1-18.1s-7.7-8.7-7.7-8.7,10.6,1.9,13.5-2.6,4.3-30,4.3-30S76.1,190,67.1,209.2,57.3,252.2,57.3,252.2Z"/>
          <path class="cls-2" d="M88.6,182.8c-8.1,8-16.2,16.4-20.9,26.9a81,81,0,0,0-4.3,11h0c-.2.8-.5,1.5-.7,2.3h-.1a224.6,224.6,0,0,0-5.4,23.7h.1c.8-4,1.7-8.1,2.7-12.1h.1a15.3,15.3,0,0,1,5.1-1.3c.1,0,.1-.2,0-.2a21,21,0,0,0-5,.9c.9-3.6,1.9-7.3,3.1-10.8a53.9,53.9,0,0,1,11.4-1.5h0a41.8,41.8,0,0,0-11.2,1l.6-1.9c2.5-.5,5-1,7.6-1.3h-.1a31.2,31.2,0,0,0-7.4.9c1.1-3.1,2.2-6.2,3.5-9.1a47.3,47.3,0,0,1,3.6-7.1,59.7,59.7,0,0,1,6.1-1.1c.1,0,.1-.1,0-.1a15.6,15.6,0,0,0-5.7.6c1-1.6,2-3.2,3.2-4.8h0c4.3-.9,8.7-1.8,13.1-1,0,0,.1-.1,0-.1-4.2-1.1-8.4-.5-12.5.3l1.3-1.8a27.9,27.9,0,0,1,8.1-1.2s.1-.1,0-.1a21,21,0,0,0-7.5.6c3.6-4.4,7.5-8.5,11.4-12.6C89,182.8,88.8,182.7,88.6,182.8Z"/>
          <path class="cls-2" d="M88.4,200.3a24.1,24.1,0,0,0-3.8-.1c-.2,0-.1.3,0,.3h3.8C88.5,200.5,88.5,200.3,88.4,200.3Z"/>
          <path class="cls-2" d="M74.6,225.2a17.2,17.2,0,0,0-5.9,1.2c-.1,0,0,.1,0,.1,2-.5,3.9-.7,5.9-1A.2.2,0,0,0,74.6,225.2Z"/>
          <path class="cls-2" d="M70.4,216.6l-2.5.2v.2h2.6C70.6,216.9,70.6,216.6,70.4,216.6Z"/>
        </g>
        <g>
          <path class="cls-1" d="M1,204.3a87.9,87.9,0,0,1,17.8,8.4,54.1,54.1,0,0,1,14.9,14.1,133.2,133.2,0,0,1,19.1,38.5,104.6,104.6,0,0,1,4.3,23.5c0,.3-.4.3-.5,0A132,132,0,0,0,45,249c-5.8-12.4-13.2-25.5-24.4-33.7-6.1-4.4-13-7.4-19.9-10.4A.3.3,0,0,1,1,204.3Z"/>
          <path class="cls-1" d="M48.3,256.5a81.5,81.5,0,0,0-14.2-10.3c-8-4.4-14.4-7.3-16.4-11.2s4.2-8.8,4.2-8.8-8.1,4-11.5,1S0,203.9,0,203.9s18.7,6.6,30.4,20.1S48.3,256.5,48.3,256.5Z"/>
          <path class="cls-2" d="M47.3,252.3C38,234.7,25.5,218.9,8.4,208.4h0a91.5,91.5,0,0,1,12.5,9.8,19.6,19.6,0,0,0-10.1,2.1h.1a27.9,27.9,0,0,1,10.3-1.7h.1l1.8,1.8a23.3,23.3,0,0,0-5.3.7c-.1,0-.1.1,0,.1a26.9,26.9,0,0,1,5.7-.5,120.9,120.9,0,0,1,8.8,10,8.1,8.1,0,0,0-3.8.3c-.1,0,0,.1,0,.1a18.7,18.7,0,0,1,4.1,0l1.5,1.9a39.8,39.8,0,0,0-11.4,1.1h.1a45,45,0,0,1,11.6-.7l1.4,1.9a21.6,21.6,0,0,0-6.7.8c-.1,0-.1.1,0,.1a27.2,27.2,0,0,1,7-.6c2,2.8,3.9,5.7,5.8,8.5a6.1,6.1,0,0,0-3,.2h0a17.1,17.1,0,0,1,3.2.1c1.7,2.6,3.3,5.3,4.8,7.9C47.1,252.7,47.4,252.5,47.3,252.3Z"/>
          <path class="cls-2" d="M32.8,237.7a17,17,0,0,0-5.5.7h0a49.5,49.5,0,0,1,5.4-.6C32.9,237.9,32.9,237.8,32.8,237.7Z"/>
          <path class="cls-2" d="M16.4,216.3a11,11,0,0,0-2.5.2h2.5Q16.7,216.5,16.4,216.3Z"/>
        </g>
        <g>
          <g>
            <polygon class="cls-3" points="72.4 314.6 30.2 314.6 36.2 270.5 37.8 259.2 64.9 259.2 66.4 270.5 72.4 314.6"/>
            <polygon class="cls-4" points="66.4 270.5 36.2 270.5 37.8 259.2 64.9 259.2 66.4 270.5"/>
          </g>
          <rect class="cls-3" x="33.9" y="255.3" width="34.9" height="9.58"/>
        </g>
      </g>
    </g>
    <g id="Floor">
      <polygon class="cls-5" points="3.3 314.6 79.4 314.4 155.4 314.3 307.4 314.1 459.4 314.3 535.4 314.4 611.4 314.6 535.4 314.8 459.4 314.9 307.4 315.1 155.4 314.9 79.4 314.8 3.3 314.6"/>
    </g>
    <g id="Shadow">
      <ellipse class="cls-1" cx="309.4" cy="357.7" rx="286.7" ry="31.4"/>
    </g>
    <g id="Character">
      <g>
        <g>
          <g>
            <g>
              <path class="cls-6" d="M242.6,352.5c-2.3.8-69.1,1-71.7-.6-.9-.6-1.5-10.3-1.9-22.1l-.3-7.8-5.4-35.6,44.7-.3,4.2,35.6-.2,7.8s25.7,11.4,28.3,13.5S245,351.7,242.6,352.5Z"/>
              <path class="cls-2" d="M242.6,352.5c-2.3.8-69.1,1-71.7-.6-1.1-.7-1.8-14.9-2.2-29.9l43.5-.3-.2,7.8s25.7,11.4,28.3,13.5S245,351.7,242.6,352.5Z"/>
              <g>
                <path class="cls-7" d="M242.6,352.5c-2.3.8-69.1,1-71.7-.6-.9-.6-1.5-10.3-1.9-22.1l43-.3s25.7,11.4,28.3,13.5S245,351.7,242.6,352.5Z"/>
                <g>
                  <g>
                    <path class="cls-5" d="M241.7,349.8c-11.2-.2-56.4-.1-67.5.5-.1,0-.1.1,0,.1,11.1.5,56.3,0,67.5-.4C241.9,350,241.9,349.8,241.7,349.8Z"/>
                    <path class="cls-5" d="M236,340.6a8.9,8.9,0,0,0-9.2,8.7h.1a10.5,10.5,0,0,1,9.1-8.6C236.1,340.7,236.1,340.6,236,340.6Z"/>
                    <path class="cls-5" d="M216.4,330.6c-4.5,0-9.7,1.6-12.5,5.3-.1.1.1.3.3.2a59.6,59.6,0,0,1,12.3-4.9A.3.3,0,0,0,216.4,330.6Z"/>
                    <path class="cls-5" d="M219.9,332c-4.5-.1-9.7,1.5-12.5,5.2-.1.2.1.3.2.2a68.6,68.6,0,0,1,12.3-4.9C220.2,332.4,220.2,332,219.9,332Z"/>
                    <path class="cls-5" d="M223.3,333.3c-4.5,0-9.7,1.6-12.4,5.3-.1.1.1.2.2.2a59.6,59.6,0,0,1,12.3-4.9A.3.3,0,0,0,223.3,333.3Z"/>
                    <path class="cls-5" d="M226.8,334.7c-4.5-.1-9.7,1.5-12.5,5.2-.1.1.1.3.3.2a59.6,59.6,0,0,1,12.3-4.9A.3.3,0,0,0,226.8,334.7Z"/>
                    <path class="cls-5" d="M177,339.7c-5,0-5,7.8,0,7.8S182,339.6,177,339.7Z"/>
                  </g>
                  <path class="cls-5" d="M221.2,318.7c-2.3-1.9-5.1-.1-6.5,1.9a23.8,23.8,0,0,0-4.1,11.5h.2c.1.3.5.6.8.4,3.2-2.3,6.8-4.2,9.3-7.4S223.3,320.4,221.2,318.7Zm-5.5,9.5-4.6,3.4c.8-2.3,1.5-4.5,2.5-6.7a28.5,28.5,0,0,1,1.6-3c1-1.5,5.4-5.3,5.9-.4C221.3,324.2,217.6,326.9,215.7,328.2Z"/>
                  <path class="cls-5" d="M199.5,333.8c3.9.6,7.9-.6,11.8-1.2.4,0,.5-.5.3-.8s.1-.1,0-.2a24,24,0,0,0-10.9-5.5c-2.3-.4-5.6.2-6,3.2S197.2,333.4,199.5,333.8Zm-2.7-2.6c-3.1-3.8,2.7-4.1,4.4-3.7a15.9,15.9,0,0,1,3.3,1c2.2.9,4.3,2,6.4,3.1l-5.6.8C203,332.7,198.5,333.4,196.8,331.2Z"/>
                </g>
              </g>
            </g>
            <g>
              <path class="cls-8" d="M97.7,121.6s51.9,88.3,53.3,94.5c2.1,9.5,13.4,103.5,13.4,103.5l54-1s-9.3-82.9-18.1-110.2c-6.4-19.6-52.2-84.9-52.2-84.9Z"/>
              <g>
                <path class="cls-5" d="M213.5,310.3c-7.8,0-35.2-.3-45.6.6v.2c3.6.5,37.8-.3,45.6-.5C213.6,310.6,213.6,310.3,213.5,310.3Z"/>
                <path class="cls-5" d="M106.6,129.7c3.4,5.4,6.9,10.6,10.4,15.9s7,10.5,10.4,15.9c6.8,10.6,13.5,21.4,20,32.2a93.3,93.3,0,0,1,8.1,15.7,91.7,91.7,0,0,1,4.5,16.9c1.1,5.8,1.8,11.7,2.4,17.5l2.1,18.7c1.5,12.7,2.9,25.5,4.3,38.2.2,1.6.3,3.1.5,4.7s-.4.3-.4.1c-1.6-12.7-2.9-25.4-4.4-38.1l-2.1-18.9c-.7-5.9-1.3-11.7-2.2-17.6a126.2,126.2,0,0,0-3.8-17,84.5,84.5,0,0,0-7.5-16.5c-6.3-10.8-12.9-21.4-19.5-32S116,144.1,109,133.7l-2.6-3.9C106.3,129.7,106.5,129.6,106.6,129.7Z"/>
              </g>
            </g>
          </g>
          <g>
            <g>
              <path class="cls-6" d="M114.7,357.7c-2.5-.1-66-25.9-67.8-28.3a4.3,4.3,0,0,1-.1-.5c0-2.2,4.4-9.8,8.1-19.9.3-.6,1.9-3.6,4.2-7.6,6.2-11,17.3-29.9,17.3-29.9L117.9,288,98.1,317.7,95,324.9s19.4,20.2,21.1,23.1S117.2,357.9,114.7,357.7Z"/>
              <path class="cls-2" d="M114.7,357.7c-2.5-.1-66-25.9-67.8-28.3a4.3,4.3,0,0,1-.1-.5c0-2.2,4.4-9.8,8.1-19.9.3-.6,1.9-3.6,4.2-7.6l39,16.3L95,324.9s19.4,20.2,21.1,23.1S117.2,357.9,114.7,357.7Z"/>
              <g>
                <path class="cls-7" d="M114.7,357.7c-2.5-.1-66-25.9-67.8-28.3-.6-.9,2.2-9.6,8-20.4L95,324.9s19.4,20.2,21.1,23.1S117.2,357.9,114.7,357.7Z"/>
                <g>
                  <g>
                    <path class="cls-5" d="M114.8,354.9c-10.3-4.4-52.2-21.3-62.7-24.9-.1,0-.2,0-.1.1,10.1,4.6,52.2,21.1,62.7,24.9C115,355.1,115,355,114.8,354.9Z"/>
                    <path class="cls-5" d="M113,344.1a9.4,9.4,0,0,0-7.2.1,8.6,8.6,0,0,0-4.6,4.6h.1a10.3,10.3,0,0,1,11.6-4.6C113,344.3,113.1,344.2,113,344.1Z"/>
                    <path class="cls-5" d="M98.6,327.6c-4.2-1.7-9.6-2.2-13.5.2-.2.1,0,.3.1.3a58.3,58.3,0,0,1,13.2,0A.3.3,0,1,0,98.6,327.6Z"/>
                    <path class="cls-5" d="M101.3,330.1c-4.2-1.7-9.6-2.2-13.5.2-.2.1,0,.3.1.3a65.7,65.7,0,0,1,13.3.1C101.5,330.7,101.6,330.3,101.3,330.1Z"/>
                    <path class="cls-5" d="M104,332.7c-4.1-1.7-9.6-2.2-13.5.2-.2,0,0,.3.1.2a65.7,65.7,0,0,1,13.3.1C104.2,333.3,104.3,332.8,104,332.7Z"/>
                    <path class="cls-5" d="M106.7,335.2c-4.1-1.7-9.5-2.2-13.5.2a.2.2,0,0,0,.1.3,59.2,59.2,0,0,1,13.3.1A.3.3,0,0,0,106.7,335.2Z"/>
                    <path class="cls-5" d="M58.7,321.2c-4.7-1.9-7.6,5.4-2.9,7.3S63.3,323.1,58.7,321.2Z"/>
                  </g>
                  <path class="cls-5" d="M107.5,318.3c-1.4-2.6-4.7-2-6.7-.7a24,24,0,0,0-8.1,9.2h.1c0,.4.2.8.6.7,3.8-.9,7.9-1.3,11.3-3.3S108.9,320.7,107.5,318.3Zm-8.6,6.8c-1.9.5-3.7.8-5.6,1.4,1.6-1.8,3.1-3.6,4.8-5.2a18.6,18.6,0,0,1,2.7-2.2c1.4-1.1,6.9-2.9,5.5,1.8C105.5,323.5,101.1,324.5,98.9,325.1Z"/>
                  <path class="cls-5" d="M81.7,324.2c3.4,2,7.6,2.4,11.4,3.3.4.1.6-.3.6-.6s.1-.1.1-.2a24.2,24.2,0,0,0-8-9.1c-2.1-1.3-5.4-2-6.8.6S79.8,323,81.7,324.2Zm-1.5-3.4c-1.4-4.7,4.1-2.8,5.5-1.8a18.6,18.6,0,0,1,2.7,2.2c1.7,1.6,3.2,3.4,4.8,5.2L87.6,325C85.4,324.5,80.9,323.4,80.2,320.8Z"/>
                </g>
              </g>
            </g>
            <g>
              <path class="cls-8" d="M101.3,316.1,54.8,297.3s57.6-84.7,58-91S87.9,152,86.9,137.9s6.3-27.2,14.4-34.5l47.9,20.4s-5,8.1-13,12.6c0,0,24.6,56.2,23.2,73.5S101.3,316.1,101.3,316.1Z"/>
              <g>
                <path class="cls-5" d="M103.3,307.2l-11.5-4.9c-3.3-1.4-25-10.4-28.3-11.2-.1,0-.1.1-.1.2,2.9,1.7,24.8,10.4,28.1,11.7,6.8,2.7,4.9,1.8,11.7,4.4C103.4,307.5,103.4,307.3,103.3,307.2Z"/>
                <g>
                  <path class="cls-5" d="M144.1,135.4a82.8,82.8,0,0,0-14.6,4.7c-.2.1-.1.3.1.3,4.9-1.4,9.9-2.8,14.7-4.5C144.7,135.8,144.5,135.3,144.1,135.4Z"/>
                  <path class="cls-5" d="M138.4,133.4a12.3,12.3,0,0,0-1.2,2.6,5.2,5.2,0,0,0-.7,2.1c0,.2.2.2.3.1a5.1,5.1,0,0,0,1.2-2c.4-.8.9-1.6,1.2-2.4S138.7,132.9,138.4,133.4Z"/>
                  <path class="cls-5" d="M139,128.9l.9-2.2a21.8,21.8,0,0,0,.9-2.3c.1-.1.3,0,.2.1a15.5,15.5,0,0,0-.7,2.3l-.7,2.2a40.8,40.8,0,0,1-1.7,4.2,4.5,4.5,0,0,0,2.3-.4,3.7,3.7,0,0,0,1.6-1.9l1.3-2.5a14.3,14.3,0,0,0,1.3-2.8c.1-.1.3,0,.2.1a33.7,33.7,0,0,1-2.5,5.9c-.5.7-.8,1.5-1.7,1.8a8,8,0,0,1-2.7.2c-.1,0-.3-.1-.2-.2A33.9,33.9,0,0,1,139,128.9Z"/>
                </g>
                <path class="cls-5" d="M136.9,138.2c1.7,3.6,3.2,7.2,4.8,10.8s3.1,7.1,4.5,10.7c2.8,7.2,5.4,14.6,7.6,22,1.2,3.7,2.2,7.4,3.1,11.1a91.6,91.6,0,0,1,2.2,11.4,31.1,31.1,0,0,1-.9,11.4,65.3,65.3,0,0,1-4.3,10.6c-1,2.2-1.4,1.9-.9.8,1.5-3.1,5.2-12.5,4.9-20.4a60.6,60.6,0,0,0-1.7-11.2c-.9-3.8-1.9-7.6-3-11.3-2.1-7.3-4.6-14.5-7.2-21.7l-4.6-12c-1.4-4.1-3-7.7-4.6-12.1C136.7,138.2,136.9,138.1,136.9,138.2Z"/>
                <path class="cls-5" d="M101.6,126.3c.9-.3,2,.2,2.9.3l3.3.4H111a9,9,0,0,0,3.2-.9,16,16,0,0,0,4-4.2,29.8,29.8,0,0,0,3.1-5.5c0-.1.2,0,.2.1s-.7,2.2-1.1,3.3a28,28,0,0,1-1.5,3c-1.1,1.7-2.3,3.6-4.2,4.7s-4.4,1-6.5.9a22,22,0,0,1-3.7-.5c-.9-.2-2.4-.3-3-1.1S101.5,126.3,101.6,126.3Z"/>
                <path class="cls-5" d="M68,288.4c7.7-11.5,15.2-23.2,22.5-34.9s14.7-23.6,21.8-35.6c1.7-2.8,3.7-5.7,4.8-8.8s.5-6.8-.6-10.1a165.7,165.7,0,0,0-7.1-18.1c-2.7-5.9-5.6-11.7-8.4-17.5a187.7,187.7,0,0,1-8-17.7c-2-5.8-2.8-11.8-1.2-17.9s4.9-11.3,8.4-16.3c.9-1.3,1.9-2.6,2.8-4s.2.1.2.2c-3.9,5.2-7.7,10.7-9.9,16.8a28.8,28.8,0,0,0-2,9.5,32.3,32.3,0,0,0,1.6,9.7c1.8,6,4.8,11.8,7.6,17.5s5.7,11.7,8.4,17.5a177.9,177.9,0,0,1,7.4,18.2,25.1,25.1,0,0,1,2,8.5c-.1,3.3-1.6,6.2-3.2,8.9-7,11.9-14.2,23.6-21.5,35.2s-14.8,23.3-22.4,34.8l-2.9,4.4C68.2,288.8,67.9,288.6,68,288.4Z"/>
              </g>
            </g>
          </g>
        </g>
        <g>
          <g>
            <path class="cls-6" d="M151.9,69.9c4.3,9.5,26.2,22.6,36.4,24,7.4,1,29.8,1.3,37.4.2s2.2-25.7-3.2-25c-14.6,1.7-27,3.6-30.8,3.6s-30.6-8.3-33.7-9.5C150.4,60.4,149.4,64.5,151.9,69.9Z"/>
            <g>
              <path class="cls-9" d="M152,72.4c5.5,8.1,23.7,21.4,23.7,21.4l2.6-5.6,8.3-18.5s-16.7-5.3-27.7-7.7a20.8,20.8,0,0,0-4-.5C147.9,61.1,147.3,65.4,152,72.4Z"/>
              <path class="cls-5" d="M152,72.4c5.5,8.1,23.7,21.4,23.7,21.4l2.6-5.6c-6.8-7.9-17.3-19.9-23.4-26.7C147.9,61.1,147.3,65.4,152,72.4Z"/>
              <path class="cls-5" d="M172.4,90c1.4-3.4,7.6-17.1,9.1-20,.2-.2.3-.2.2,0a217.2,217.2,0,0,1-9.1,20.1C172.5,90.2,172.4,90.1,172.4,90Z"/>
            </g>
            <g>
              <path class="cls-6" d="M219.9,69.3c8.9-1.1,19.8-3.1,29.2.8a4.8,4.8,0,0,1,2.4,2.2c4.2,1.7,4.7,4.2,4.7,4.2,3.4,2.7,3.6,5.3,3.6,5.3s4.9,2.1,4.1,5.3-7.5,0-12.4.3c-11.3.7-27.1,4.8-30.3,5.3Z"/>
              <path class="cls-5" d="M239.2,79.8a80.1,80.1,0,0,1,9.8,0,62.2,62.2,0,0,1,10.6,2.1c.2,0,.2-.1.1-.2a38.7,38.7,0,0,0-20.5-2C239,79.7,239,79.8,239.2,79.8Z"/>
              <path class="cls-5" d="M237.8,73.1c3.2,0,8.9.1,18.4,3.5h0a34.6,34.6,0,0,0-18.4-3.6C237.6,72.9,237.5,73.1,237.8,73.1Z"/>
              <path class="cls-5" d="M237.1,69.5c5.5.2,8.9,1.1,14.4,2.8,0,0,.1-.1,0-.1-6-2.5-8.5-2.8-14.4-2.9C236.9,69.3,236.9,69.4,237.1,69.5Z"/>
              <path class="cls-6" d="M238,89.1c-1.5.6-1.1,1.4,1.6,2s14.1.8,13.7,4.8-16.4,3.4-20.9,2-11.2-5.2-11.2-5.2C224.3,92.2,231.8,90.2,238,89.1Z"/>
            </g>
          </g>
          <g>
            <path class="cls-5" d="M163.8,85c-.1,1.7-.3,3.5-.5,5.2,0-.1.1-.1.1-.2s.6-1.8,1-2.7.1,0,.1.1a13.8,13.8,0,0,1-.8,2.7l-.6,1.3a18.5,18.5,0,0,1-.4,2.3c-.3,1.4-1.6,7.5-1.9,8.5s-.4.2-.3,0,1.2-7.5,1.4-8.9a58.4,58.4,0,0,1,1.8-8.3Z"/>
            <g>
              <path class="cls-9" d="M153.4,130.5c-2.7,1.4-6.1,3.5-21.6.4a16.3,16.3,0,0,1-3-.7c-14.5-4.3-31.9-21.4-32.9-22.6S119,70.1,148.5,58.4c3.6-1.5,9.7,1.3,13,4.8,1.2,1.3,3.8,10.4,2.8,17.9S156,129.1,153.4,130.5Z"/>
              <g>
                <path class="cls-2" d="M151.3,80.7a9.7,9.7,0,0,1-.1,2.4,9.8,9.8,0,0,1-.6,2.3,19.3,19.3,0,0,1,.1-2.4A11.2,11.2,0,0,1,151.3,80.7Z"/>
                <path class="cls-2" d="M141.2,106.2a9.6,9.6,0,0,1,0,2.4,19.5,19.5,0,0,1-.6,2.3,9.7,9.7,0,0,1,.1-2.4A9.5,9.5,0,0,1,141.2,106.2Z"/>
                <path class="cls-2" d="M124.1,87a8.7,8.7,0,0,1-.1,2.3,8.6,8.6,0,0,1-.5,2.3,8.8,8.8,0,0,1,0-2.3A15.5,15.5,0,0,1,124.1,87Z"/>
                <path class="cls-2" d="M157.9,104.9a9.7,9.7,0,0,1-.1,2.4,9.8,9.8,0,0,1-.6,2.3,19.3,19.3,0,0,1,.1-2.4A11.2,11.2,0,0,1,157.9,104.9Z"/>
                <path class="cls-2" d="M135.9,83.7a9.6,9.6,0,0,1,2.4,0l2.3.6a9.7,9.7,0,0,1-2.4-.1A9.5,9.5,0,0,1,135.9,83.7Z"/>
                <path class="cls-2" d="M116.5,102.1a9.7,9.7,0,0,1,2.4.1,10.6,10.6,0,0,1,2.3.5,9.7,9.7,0,0,1-2.4-.1A8.6,8.6,0,0,1,116.5,102.1Z"/>
                <path class="cls-2" d="M139.3,122a9.7,9.7,0,0,1,2.4.1,8.6,8.6,0,0,1,2.3.6h-2.4Z"/>
                <path class="cls-2" d="M110.5,114.8h2.4l2.3.6a9.7,9.7,0,0,1-2.4-.1A9.5,9.5,0,0,1,110.5,114.8Z"/>
                <path class="cls-2" d="M151.1,62.8a9.5,9.5,0,0,1,2.4.1,8.6,8.6,0,0,1,2.3.6,9.7,9.7,0,0,1-2.4-.1Z"/>
                <path class="cls-2" d="M145.5,69.2a12.9,12.9,0,0,1-1.7,1.6,8.8,8.8,0,0,1-2.1,1.2l1.8-1.6A13.2,13.2,0,0,1,145.5,69.2Z"/>
                <path class="cls-2" d="M114.7,87.3a6.4,6.4,0,0,1-1.7,1.6,13.7,13.7,0,0,1-2,1.3,9.1,9.1,0,0,1,1.7-1.7A13.2,13.2,0,0,1,114.7,87.3Z"/>
                <path class="cls-2" d="M153.2,95.5a12.9,12.9,0,0,1-1.8,1.6,13.7,13.7,0,0,1-2,1.3,9.1,9.1,0,0,1,1.7-1.7A14.3,14.3,0,0,1,153.2,95.5Z"/>
                <path class="cls-2" d="M128.3,111.2a13.7,13.7,0,0,1-1.8,1.6,8.2,8.2,0,0,1-2,1.2,12.9,12.9,0,0,1,1.7-1.6A8.8,8.8,0,0,1,128.3,111.2Z"/>
                <path class="cls-2" d="M162.7,74.1a12.9,12.9,0,0,1-1.7,1.6,8.8,8.8,0,0,1-2.1,1.2,9.3,9.3,0,0,1,1.8-1.6A8.2,8.2,0,0,1,162.7,74.1Z"/>
                <path class="cls-2" d="M162.2,92.3a5.5,5.5,0,0,1-1.6-1.8,9.9,9.9,0,0,1-1.3-2,9.1,9.1,0,0,1,1.7,1.7A14.3,14.3,0,0,1,162.2,92.3Z"/>
                <path class="cls-2" d="M106.7,104.8a8.5,8.5,0,0,1-1.6-1.7,14.8,14.8,0,0,1-1.3-2.1,9.1,9.1,0,0,1,1.7,1.7A14.3,14.3,0,0,1,106.7,104.8Z"/>
                <path class="cls-2" d="M155.4,119.7a9.3,9.3,0,0,1-1.6-1.8,6.7,6.7,0,0,1-1.2-2,12.9,12.9,0,0,1,1.6,1.7A8.8,8.8,0,0,1,155.4,119.7Z"/>
                <path class="cls-2" d="M131,77.2a12.9,12.9,0,0,1-1.6-1.7,8.2,8.2,0,0,1-1.2-2,12.9,12.9,0,0,1,1.6,1.7A13.2,13.2,0,0,1,131,77.2Z"/>
                <path class="cls-2" d="M131.4,128.2l-1.6-1.8a8.2,8.2,0,0,1-1.2-2,12.9,12.9,0,0,1,1.6,1.7A8.8,8.8,0,0,1,131.4,128.2Z"/>
                <path class="cls-2" d="M135.6,98.1a8.5,8.5,0,0,1-1.6-1.7,13.7,13.7,0,0,1-1.3-2,9.1,9.1,0,0,1,1.7,1.7A13.2,13.2,0,0,1,135.6,98.1Z"/>
              </g>
            </g>
          </g>
          <g>
            <g>
              <path class="cls-6" d="M156.1,73.2c-3.8-.7-7.3-8.5-7.7-13.8-.1-.3,1.7-3.2,3.7-6.7s2.5-4.7,3.6-7c.2-.5,1.4,1.1,1.4,1.1l2.7,2.1,8.8,6.8a41.7,41.7,0,0,0-5.3,8.3,3.2,3.2,0,0,0-.3.9c0,.1,0,.2-.1.2C162.4,67.1,159.7,73.8,156.1,73.2Z"/>
              <path class="cls-5" d="M163,64.9c0,.1,0,.2-.1.2a4.7,4.7,0,0,1-1.5-.6C151.7,60,156,47,156,47l3.8,1.9,8.8,6.8a41.7,41.7,0,0,0-5.3,8.3A3.2,3.2,0,0,0,163,64.9Z"/>
            </g>
            <g>
              <path class="cls-5" d="M178.8,28s4.4,2.8,4.5,7.8-2,9.9-2.5,10.1S178.8,28,178.8,28Z"/>
              <path class="cls-6" d="M156.8,30.6c-2.6,5.3-2.5,21.8.8,26.1,4.8,6.1,14.1,8.3,19.7,2.2s4.9-27.5,1.1-31.5C172.7,21.4,160.8,22.8,156.8,30.6Z"/>
              <path class="cls-10" d="M157.2,56.4h.1"/>
              <g>
                <g>
                  <path class="cls-5" d="M170.9,43.9h0c0,1.1-.1,2.4-1.1,2.8h0C171,46.6,171.2,44.9,170.9,43.9Z"/>
                  <path class="cls-5" d="M169.9,42.7c-1.8-.1-1.9,3.5-.2,3.6S171.4,42.8,169.9,42.7Z"/>
                </g>
                <g>
                  <path class="cls-5" d="M177.1,43.8h.1c-.1,1.1.1,2.4,1.1,2.8h0C177,46.6,176.9,44.9,177.1,43.8Z"/>
                  <path class="cls-5" d="M178.1,42.6c1.9-.1,1.9,3.6.3,3.7S176.6,42.7,178.1,42.6Z"/>
                </g>
                <path class="cls-5" d="M168.8,39.9l1.4-.4c.5-.2,1-.3,1.3-.8a.6.6,0,0,0-.1-.9,1.8,1.8,0,0,0-1.9-.3,2.8,2.8,0,0,0-1.6,1.2A.8.8,0,0,0,168.8,39.9Z"/>
                <path class="cls-5" d="M179.4,41.5a3.3,3.3,0,0,1-1.4-.4,2.2,2.2,0,0,1-1.4-.6.9.9,0,0,1,0-1,1.9,1.9,0,0,1,1.9-.3,2.6,2.6,0,0,1,1.7,1.1A.8.8,0,0,1,179.4,41.5Z"/>
                <path class="cls-5" d="M168.4,54.5c.2.3.5.7.9.7a2.3,2.3,0,0,0,1.2-.2c.1-.1.1,0,.1,0a1.6,1.6,0,0,1-1.5.6c-.5-.1-.7-.5-.8-1S168.3,54.5,168.4,54.5Z"/>
                <path class="cls-5" d="M174.9,49.7a19.7,19.7,0,0,1,0,2.5,15.2,15.2,0,0,0-4.6.2c-.4,0-.3-.3.1-.4a6.4,6.4,0,0,1,3.9-.6c.1-.2-.1-2.6,0-2.6l1.7.6c0-3.5-.5-7-.5-10.5,0-.1.2-.1.2,0a54.1,54.1,0,0,1,1.1,11.3C176.8,50.6,175.2,49.9,174.9,49.7Z"/>
                <g>
                  <path class="cls-5" d="M172.7,51.6s-.8,2-2.1,2.5-2.1-.8-.5-2A5.1,5.1,0,0,1,172.7,51.6Z"/>
                  <path class="cls-11" d="M171.1,53.8l-.5.3c-1.4.6-2-.6-.9-1.7S171.3,52.8,171.1,53.8Z"/>
                </g>
              </g>
              <g>
                <path class="cls-5" d="M156.1,44.8c1.8.5,3.9-5,4.5-7.1s1.1-7.8,1.2-8.2,8,5.3,12.6,3.9,7.7-5.5,7.7-7.4-5.6-6.8-10.6-7.1S159.9,25,159.9,25s2.2-2.8,2.2-3-3.3,1.1-3.9,3.3a13.5,13.5,0,0,0,.4-2.9c-.2,0-2.7,2.4-2.2,4.3,0,0-2.8,2.5-3.1,5.2S153.9,44.1,156.1,44.8Z"/>
                <path class="cls-5" d="M177.7,32.4a13.7,13.7,0,0,1-4.4,1.6,10.8,10.8,0,0,1-5-.8,14.5,14.5,0,0,1-4.3-2.6c-1.2-.9-2.2-2.1-3.4-2.9a.4.4,0,0,0-.5.5,17.4,17.4,0,0,0,8.4,6.2,9.6,9.6,0,0,0,9.2-1.9Z"/>
              </g>
              <g>
                <path class="cls-6" d="M158,44.3s-2.9-5.8-5.4-4.9-1,8.9,1.6,10.4a2.9,2.9,0,0,0,4-.9Z"/>
                <path class="cls-5" d="M153.1,41.7c-.1,0-.1.1,0,.1,1.8,1.1,2.5,3,3,5a1.7,1.7,0,0,0-2.3-.8c-.1,0,0,.1,0,.1a1.8,1.8,0,0,1,1.8.9,5.1,5.1,0,0,1,.7,1.7c.1.2.4.2.4-.1h0C157.1,46.1,155.7,42.4,153.1,41.7Z"/>
              </g>
            </g>
          </g>
          <g>
            <g>
              <path class="cls-6" d="M139.2,70c-1.9,11.3,10.3,49.5,18.2,56.6,11.7,10.6,33.3,17.6,41.2,19.9,3.4.9,12.9-23.1,9.4-24.7-7.4-3.4-30.4-10.6-32.6-12.4S160,88.5,154.1,77.5C146.2,62.8,140.2,64.2,139.2,70Z"/>
              <g>
                <path class="cls-6" d="M202.2,119.7s10.2,2.6,16.8,4.6c3.7,1.1,9.8,3.6,12.1,5.7s16.1,18.2,12.5,21.3-12.4-11.5-12.4-11.5,10.5,13.7,5.9,16.3-12.7-14.9-12.7-14.9,10.5,14.3,5.4,16.4-12.2-14-12.2-14,8.9,12.3,5,14.1-12.9-12-12.9-12c-10.7,2.8-17-.3-21.2-3C187.5,142.1,202.2,119.7,202.2,119.7Z"/>
                <g>
                  <path class="cls-5" d="M227.8,134.8c1.3,1.6,2.6,3.1,3.8,4.8s2.2,3.4,3.2,5.2A28.8,28.8,0,0,1,238,152c-1.7-4.4-5.7-10.4-6.9-12.1l-3.3-5C227.7,134.8,227.8,134.8,227.8,134.8Z"/>
                  <path class="cls-5" d="M221.7,138.9c2.2,1.7,6.9,8.3,8.7,12.6.1.2,0,.2-.1.1-1.5-2.2-7.1-10.6-8.6-12.7C221.6,138.9,221.7,138.8,221.7,138.9Z"/>
                  <path class="cls-5" d="M215.8,141.4a30.4,30.4,0,0,1,6.5,10c0,.2-.1.2-.2,0-2.1-3.4-3.7-6-6.4-9.9Z"/>
                </g>
              </g>
            </g>
            <g>
              <path class="cls-9" d="M150.3,70.8c-9.1-12.9-14.5-8.1-12.7,5.9s6.3,28.7,6.3,28.7l23-11.1Z"/>
              <g>
                <path class="cls-2" d="M155.9,75.9a8.8,8.8,0,0,1,.7,2.3,8.7,8.7,0,0,1,.1,2.3,9,9,0,0,1-.6-2.2A19.4,19.4,0,0,1,155.9,75.9Z"/>
                <path class="cls-2" d="M142.3,83.7a8.6,8.6,0,0,1,2.3-.6l2.3-.2a9.4,9.4,0,0,1-2.2.7A9.7,9.7,0,0,1,142.3,83.7Z"/>
                <path class="cls-2" d="M142.9,63.7a8.2,8.2,0,0,1-1.2,2,6.5,6.5,0,0,1-1.5,1.8,21.2,21.2,0,0,1,1.1-2.1A12.9,12.9,0,0,1,142.9,63.7Z"/>
                <path class="cls-2" d="M162.3,89.8a12.8,12.8,0,0,1-1.1,2,9.3,9.3,0,0,1-1.6,1.8,8.2,8.2,0,0,1,1.2-2A6.5,6.5,0,0,1,162.3,89.8Z"/>
                <path class="cls-2" d="M146.4,97.6a13.9,13.9,0,0,1-2.1-1.1l-1.8-1.6a10.3,10.3,0,0,1,2.1,1.1A13.7,13.7,0,0,1,146.4,97.6Z"/>
              </g>
              <path class="cls-5" d="M153.4,74.7c1.2,1.7,2.5,3.3,3.8,5l-.9-2.6h.1a16.7,16.7,0,0,0,.8,2l.3,1c.1,0,.1.1.1.2l2.9,3.9q1.8,2.4,3.3,4.8c1.2,1.6,2.3,3.6,3.5,5.2a16.7,16.7,0,0,1-2.3,1.1c-.2.1-.3-.1-.1-.2a16,16,0,0,0,1.9-1.1c-1.1-1.6-2.4-3.1-3.5-4.7l-3.4-4.7c-2.3-3.2-4.3-6.6-6.6-9.9Z"/>
              <path class="cls-5" d="M138.2,86c.3.7.7,1.3,1,2l.4.9c-.5-2.5-1.1-5-1.6-7.5h.1c1,4,2.1,8.1,3.1,12.2s2,7.8,2.6,11.7l2.1-.7a9.7,9.7,0,0,1-2.3,1.1,120.7,120.7,0,0,1-3-12.2c-.3-1.1-.5-2.2-.8-3.4l-.8-2a18.9,18.9,0,0,1-.9-2.1Z"/>
              <path class="cls-5" d="M144.3,101.6c3.2-1.8,16.5-8.8,19.5-10.1.2,0,.3.1.1.2a191.8,191.8,0,0,1-19.6,10S144.2,101.6,144.3,101.6Z"/>
            </g>
          </g>
        </g>
      </g>
    </g>
    <g id="Folder">
      <g>
        <g>
          <g>
            <polygon class="cls-9" points="510.7 364.5 206 364.5 250.1 114.6 554.8 114.6 510.7 364.5"/>
            <polygon class="cls-9" points="354.4 88.7 254.6 88.7 250.1 114.6 356.8 114.6 354.4 88.7"/>
          </g>
          <g class="cls-12">
            <polygon points="510.7 364.5 206 364.5 250.1 114.6 554.8 114.6 510.7 364.5"/>
            <polygon points="354.4 88.7 254.6 88.7 250.1 114.6 356.8 114.6 354.4 88.7"/>
          </g>
        </g>
        <g>
          <path class="cls-5" d="M243.9,99.3a16.1,16.1,0,0,1-.5-4.4,15.8,15.8,0,0,1,.5-4.3,15.8,15.8,0,0,1,.5,4.3A16.1,16.1,0,0,1,243.9,99.3Z"/>
          <path class="cls-5" d="M235,101.9a15,15,0,0,1-2.6-3.6,13.1,13.1,0,0,1-1.7-4,28.8,28.8,0,0,1,2.6,3.5A18.6,18.6,0,0,1,235,101.9Z"/>
          <path class="cls-5" d="M228.6,108.5a20,20,0,0,1-4-1.7,22.7,22.7,0,0,1-3.5-2.6,15.5,15.5,0,0,1,4,1.7A12.8,12.8,0,0,1,228.6,108.5Z"/>
          <path class="cls-5" d="M226.4,117.5a15.8,15.8,0,0,1-4.3.5,16.5,16.5,0,0,1-4.4-.5,16.5,16.5,0,0,1,4.4-.5A15.8,15.8,0,0,1,226.4,117.5Z"/>
          <path class="cls-5" d="M229,126.3a16.7,16.7,0,0,1-3.5,2.6,18.9,18.9,0,0,1-4.1,1.8,15,15,0,0,1,3.6-2.6A16.2,16.2,0,0,1,229,126.3Z"/>
          <path class="cls-5" d="M235.6,132.7a16.1,16.1,0,0,1-1.7,4,23.6,23.6,0,0,1-2.6,3.6,18.6,18.6,0,0,1,1.7-4.1A28.8,28.8,0,0,1,235.6,132.7Z"/>
          <path class="cls-5" d="M244.6,134.9a16.5,16.5,0,0,1,.5,4.4,15.8,15.8,0,0,1-.5,4.3,15.8,15.8,0,0,1-.5-4.3A16.5,16.5,0,0,1,244.6,134.9Z"/>
          <path class="cls-5" d="M253.4,132.4a12.8,12.8,0,0,1,2.6,3.5,15.9,15.9,0,0,1,1.8,4,16.7,16.7,0,0,1-2.6-3.5A20.4,20.4,0,0,1,253.4,132.4Z"/>
          <path class="cls-5" d="M259.8,125.7a18.9,18.9,0,0,1,4.1,1.8,16.7,16.7,0,0,1,3.5,2.6,16.2,16.2,0,0,1-4-1.8A15,15,0,0,1,259.8,125.7Z"/>
          <path class="cls-5" d="M262,116.8a16.5,16.5,0,0,1,4.4-.5,15.8,15.8,0,0,1,4.3.5,15.8,15.8,0,0,1-4.3.5A22,22,0,0,1,262,116.8Z"/>
          <path class="cls-5" d="M259.5,107.9a14.5,14.5,0,0,1,3.5-2.6,15.5,15.5,0,0,1,4-1.7,22.7,22.7,0,0,1-3.5,2.6A20,20,0,0,1,259.5,107.9Z"/>
          <path class="cls-5" d="M252.8,101.5a20.4,20.4,0,0,1,1.8-4,12.8,12.8,0,0,1,2.6-3.5,15.9,15.9,0,0,1-1.8,4A14.5,14.5,0,0,1,252.8,101.5Z"/>
        </g>
        <polygon class="cls-9" points="510.3 364.5 204.9 364.5 161.6 123.7 466.9 123.7 510.3 364.5"/>
        <g>
          <circle class="cls-5 eyes" cx="267.4" cy="258.2" r="12.7"/>
          <circle class="cls-5 eyes" cx="367.7" cy="258.2" r="12.7"/>
          <path class="cls-5 mouth" d="M335.8,272.9l-.7-1.3c-.1-.1-6.7-12.3-19.8-12.3s-15,11.5-15.1,11.9l-.4,1.5-2.9-.7.4-1.5c0-.1,3.5-14.2,18-14.2s22.1,13.3,22.4,13.9l.7,1.3Z"/>
        </g>
      </g>
    </g>
    <g id="Fly">
      <g>
        <g>
          <path class="cls-13" d="M490,256.7l1.9-.4"/>
          <path class="cls-14" d="M495.8,255.1c15.3-5.1,28.1-17.2,29.3-31.2,2.6-31-35.1-48.1-31.2-84,3.7-34.1,39.5-36.6,53.9-31.8,15.9,5.2,10.4,20.4-3.9,18.5-24.9-3.5-40.6-30.5-28.8-61.3C524,42.4,546,33.7,555,31.1"/>
          <path class="cls-13" d="M556.9,30.6l1.9-.5"/>
        </g>
        <g>
          <path class="cls-5" d="M574.7,24.6c-2.6-7.9-19.6-5.1-16.3,5.2S577.3,32.5,574.7,24.6Z"/>
          <g>
            <path class="cls-1" d="M549.1,21.4c.1-3.5,5-6.1,11.8-4.9s13.2,5.8,13.2,5.8-6.7,4.1-13.6,4.9S549,24.9,549.1,21.4Z"/>
            <g>
              <path class="cls-5" d="M574.1,22.3l-10.6-.2c-3.5-.1-7.1-.3-10.6-.6l10.6.2C567.1,21.9,570.6,22,574.1,22.3Z"/>
              <path class="cls-5" d="M556,18.3l2.9,1.6a17.1,17.1,0,0,1,2.7,2l-2.9-1.6C557.8,19.6,556.8,19,556,18.3Z"/>
              <path class="cls-5" d="M565.2,22a17.9,17.9,0,0,1-2.8,2,19.2,19.2,0,0,1-3.1,1.8,30.6,30.6,0,0,1,2.9-2.1Z"/>
              <path class="cls-5" d="M566.3,20l1.4.9,1.1,1.2a5.5,5.5,0,0,1-1.4-.9A4.3,4.3,0,0,1,566.3,20Z"/>
            </g>
          </g>
          <g>
            <path class="cls-1" d="M555.6,42c2.1,2.7,7.6,2.1,12.4-2.9s7.4-12.5,7.4-12.5-7.9.6-13.9,4S553.5,39.2,555.6,42Z"/>
            <g>
              <path class="cls-5" d="M575.4,26.6,566.9,33c-2.8,2.2-5.6,4.3-8.3,6.6,2.9-2,5.7-4.2,8.5-6.3S572.7,28.9,575.4,26.6Z"/>
              <path class="cls-5" d="M563,40.5a29.2,29.2,0,0,0,1.4-3.1,28.3,28.3,0,0,0,1.1-3.1c-.6,1-1,2-1.5,3A17,17,0,0,0,563,40.5Z"/>
              <path class="cls-5" d="M568.3,32.1a20.4,20.4,0,0,0-3.5,0,19.5,19.5,0,0,0-3.4.3,20.4,20.4,0,0,0,3.5,0A19.5,19.5,0,0,0,568.3,32.1Z"/>
              <path class="cls-5" d="M570.3,33a3.9,3.9,0,0,0,.6-1.5,4.7,4.7,0,0,0,.3-1.7,5.2,5.2,0,0,0-.6,1.6A4.5,4.5,0,0,0,570.3,33Z"/>
            </g>
          </g>
          <path class="cls-15" d="M574.7,24.6a3,3,0,1,1-1.8-5.7,2.9,2.9,0,0,1,3.7,1.9A3,3,0,0,1,574.7,24.6Z"/>
          <path class="cls-15" d="M576.5,30.3a3,3,0,1,1,2-3.8A3,3,0,0,1,576.5,30.3Z"/>
        </g>
      </g>
    </g>
    <g id="Speech_Bubble" data-name="Speech Bubble">
      <g>
        <g>
          <path class="cls-2" d="M248.7,27.7a24.9,24.9,0,0,1-27.4,22.2,24.2,24.2,0,0,1-14.2-6.4l-12.5,1.8,6.2-10.7a25.5,25.5,0,0,1-1.7-12,24.9,24.9,0,0,1,49.6,5.1Z"/>
          <path class="cls-5" d="M248.7,27.7a25.2,25.2,0,0,1-5,12.7c-.7.9-1.5,1.7-2.3,2.6s-1.7,1.6-2.6,2.2a27.3,27.3,0,0,1-6,3.4,32.6,32.6,0,0,1-6.7,1.6h-3.5a20.7,20.7,0,0,1-3.5-.3,26.5,26.5,0,0,1-12.3-6.1h.3l-12.5,1.9h-.9l.5-.8,6.2-10.8v.4a25.2,25.2,0,0,1,1.5-22.2,24.8,24.8,0,0,1,7.8-8.3,25.8,25.8,0,0,1,10.7-4,25.1,25.1,0,0,1,11.2,1.1,24.5,24.5,0,0,1,9.6,5.9A24.9,24.9,0,0,1,248.7,27.7Zm0,0a24.7,24.7,0,0,0-7.6-20.4,24.1,24.1,0,0,0-9.6-5.7A24.6,24.6,0,0,0,220.4.8a24.1,24.1,0,0,0-10.3,4,26.3,26.3,0,0,0-7.4,8.2,24.3,24.3,0,0,0-3.2,10.5,25.6,25.6,0,0,0,1.8,10.9v.2l-.2.2L195,45.6l-.5-.7L207,43.2h.3a24.9,24.9,0,0,0,11.9,6.2,19.7,19.7,0,0,0,3.4.4c1.1.1,2.3,0,3.4,0a21.8,21.8,0,0,0,6.7-1.5,23.1,23.1,0,0,0,6-3.2,27.5,27.5,0,0,0,2.6-2.2,28.5,28.5,0,0,0,2.3-2.6A26,26,0,0,0,248.7,27.7Z"/>
        </g>
        <g>
          <path class="cls-9 warnings" d="M211.7,36.8a2.5,2.5,0,0,1,2.5-2.6,2.4,2.4,0,0,1,2.4,2.6,2.5,2.5,0,1,1-4.9,0Zm1.1-5.9L212.2,11h3.9l-.5,19.9Z"/>
          <path class="cls-9 warnings" d="M221.2,36.8a2.5,2.5,0,0,1,2.5-2.6,2.4,2.4,0,0,1,2.4,2.6,2.3,2.3,0,0,1-2.4,2.5A2.4,2.4,0,0,1,221.2,36.8Zm1.1-5.9L221.7,11h3.9l-.5,19.9Z"/>
          <path class="cls-9 warnings" d="M230.7,36.8a2.5,2.5,0,0,1,2.5-2.6,2.4,2.4,0,0,1,2.4,2.6,2.3,2.3,0,0,1-2.4,2.5A2.4,2.4,0,0,1,230.7,36.8Zm1.1-5.9L231.2,11h4l-.6,19.9Z"/>
        </g>
      </g>
    </g>
  </g>
</svg>
