<svg xmlns="http://www.w3.org/2000/svg" xmlns:xlink="http://www.w3.org/1999/xlink" id="Capa_1" height="512" viewBox="0 0 502 502" width="512"><linearGradient id="SVGID_1_" gradientUnits="userSpaceOnUse" x1="251" x2="251" y1="211.566" y2="57.209"><stop offset="0" stop-color="#ec6f80"></stop><stop offset="1" stop-color="#eca0aa"></stop></linearGradient><linearGradient id="SVGID_2_" gradientUnits="userSpaceOnUse" x1="157.204" x2="157.204" y1="361.08" y2="430.406"><stop offset="0" stop-color="#c5cccc"></stop><stop offset="1" stop-color="#e6e6e6"></stop></linearGradient><linearGradient id="lg1"><stop offset="0" stop-color="#4e5660"></stop><stop offset="1" stop-color="#64768d"></stop></linearGradient><linearGradient id="SVGID_3_" gradientUnits="userSpaceOnUse" x1="70.663" x2="70.663" xlink:href="#lg1" y1="312.072" y2="183.352"></linearGradient><linearGradient id="lg2"><stop offset="0" stop-color="#eca0aa"></stop><stop offset="1" stop-color="#f8dde3"></stop></linearGradient><linearGradient id="SVGID_4_" gradientUnits="userSpaceOnUse" x1="27.322" x2="27.322" xlink:href="#lg2" y1="315.749" y2="169.288"></linearGradient><linearGradient id="SVGID_5_" gradientUnits="userSpaceOnUse" x1="431.337" x2="431.337" xlink:href="#lg1" y1="312.072" y2="183.352"></linearGradient><linearGradient id="SVGID_6_" gradientUnits="userSpaceOnUse" x1="474.678" x2="474.678" xlink:href="#lg2" y1="315.749" y2="169.288"></linearGradient><linearGradient id="SVGID_7_" gradientUnits="userSpaceOnUse" x1="251" x2="251" y1="14.329" y2="399.311"><stop offset="0" stop-color="#d4dbdb"></stop><stop offset="1" stop-color="#f3f3f3"></stop></linearGradient><linearGradient id="SVGID_8_" gradientUnits="userSpaceOnUse" x1="286.16" x2="286.16" xlink:href="#lg1" y1="409.179" y2="308.98"></linearGradient><g><path d="m17.161 260.296v-34.439c0-67.433 45.696-125.929 111.126-142.251 40.1-10.003 81.386-15.074 122.714-15.074s82.614 5.072 122.713 15.074c65.43 16.322 111.126 74.817 111.126 142.251v34.439z" fill="url(#SVGID_1_)"></path><path d="m108.044 326.353c3.284 28.732 1.461 52.315-5.675 75.938-5.661 18.742 12.039 35.981 30.667 29.953 33.992-11 65.595-36.602 80.075-75.785z" fill="url(#SVGID_2_)"></path><path d="m66.465 315.128h8.395c14.437 0 26.14-11.703 26.14-26.14v-69.943c0-14.437-11.703-26.14-26.14-26.14h-8.395c-14.437 0-26.14 11.703-26.14 26.14v69.943c0 14.436 11.704 26.14 26.14 26.14z" fill="url(#SVGID_3_)"></path><path d="m35.379 319.637c10.639 0 19.264-8.625 19.264-19.264v-92.715c0-10.639-8.625-19.264-19.264-19.264-19.539 0-35.379 15.84-35.379 35.38v60.484c0 19.539 15.84 35.379 35.379 35.379z" fill="url(#SVGID_4_)"></path><path d="m435.534 315.128h-8.395c-14.437 0-26.14-11.703-26.14-26.14v-69.943c0-14.437 11.703-26.14 26.14-26.14h8.395c14.437 0 26.14 11.703 26.14 26.14v69.943c.001 14.436-11.703 26.14-26.14 26.14z" fill="url(#SVGID_5_)"></path><path d="m466.62 319.637c-10.639 0-19.264-8.625-19.264-19.264v-92.715c0-10.639 8.625-19.264 19.264-19.264 19.54 0 35.38 15.84 35.38 35.379v60.484c0 19.54-15.84 35.38-35.38 35.38z" fill="url(#SVGID_6_)"></path><path d="m358.881 364.964c-70.835 17.67-144.927 17.67-215.762 0-38.005-9.48-64.675-43.619-64.675-82.789v-56.318c0-39.17 26.669-73.309 64.675-82.789 70.835-17.67 144.926-17.67 215.762 0 38.005 9.48 64.674 43.619 64.674 82.789v56.318c0 39.17-26.669 73.309-64.674 82.789z" fill="url(#SVGID_7_)"></path><path d="m419.87 375.861h-99.517c-5.523 0-10-4.477-10-10 0-5.522 4.477-10 10-10h99.517c24.798 0 44.973-20.175 44.973-44.974v-23.259c0-5.522 4.477-10 10-10s10 4.478 10 10v23.259c0 35.827-29.147 64.974-64.973 64.974z" fill="#424e5e"></path><ellipse cx="286.16" cy="365.861" fill="url(#SVGID_8_)" rx="51.21" ry="41.005"></ellipse><path d="m264.815 310.627-.107-.268c-3.058-7.635-11.778-11.367-19.367-8.196-26.942 11.258-40.391 34.638-40.391 63.699 0 3.526.203 6.859.566 10.018 10.224 1.049 20.475 1.727 30.735 2.067-.902-3.821-1.301-7.878-1.301-12.085 0-15.548 5.442-29.067 21.695-36.016 7.49-3.204 11.198-11.656 8.17-19.219z" fill="#c2c8cf"></path><g fill="#ffccd3"><path d="m422.69 150.101c-2.533 0-5.066-.956-7.014-2.873-8.377-8.245-17.965-15.061-28.5-20.259-4.953-2.443-6.987-8.439-4.543-13.393 2.443-4.953 8.44-6.987 13.393-4.543 12.45 6.143 23.781 14.197 33.68 23.94 3.936 3.874 3.986 10.206.112 14.142-1.957 1.989-4.542 2.986-7.128 2.986z"></path><path d="m352.32 115.62c-.698 0-1.407-.073-2.118-.227-2.685-.579-5.415-1.143-8.116-1.676-5.418-1.068-8.945-6.327-7.876-11.746 1.069-5.418 6.329-8.942 11.746-7.875 2.816.555 5.663 1.143 8.462 1.746 5.399 1.164 8.831 6.484 7.667 11.884-1.011 4.688-5.156 7.894-9.765 7.894z"></path></g></g></svg>